HIERARCHY
ROOT root
{
	OFFSET 0.000000 0.000000 0.000000
	CHANNELS 6 Xposition Yposition Zposition Zrotation Yrotation Xrotation
	JOINT lhip
	{
		OFFSET 0.058581 -0.082280 -0.017664
		CHANNELS 3 Zrotation Yrotation Xrotation
		JOINT lknee
		{
			OFFSET 0.043451 -0.386469 0.008037
			CHANNELS 3 Zrotation Yrotation Xrotation
			JOINT lankle
			{
				OFFSET -0.014790 -0.426874 -0.037428
				CHANNELS 3 Zrotation Yrotation Xrotation
				JOINT ltoe
				{
					OFFSET 0.041054 -0.060286 0.122042
					CHANNELS 3 Zrotation Yrotation Xrotation
					End Site
					{
						OFFSET 0.000000 0.000000 0.000000
					}
				}
			}
		}
	}
	JOINT rhip
	{
		OFFSET -0.060310 -0.090513 -0.013543
		CHANNELS 3 Zrotation Yrotation Xrotation
		JOINT rknee
		{
			OFFSET -0.043257 -0.383688 -0.004843
			CHANNELS 3 Zrotation Yrotation Xrotation
			JOINT rankle
			{
				OFFSET 0.019056 -0.420046 -0.034562
				CHANNELS 3 Zrotation Yrotation Xrotation
				JOINT rtoe
				{
					OFFSET -0.034840 -0.062106 0.130323
					CHANNELS 3 Zrotation Yrotation Xrotation
					End Site
					{
						OFFSET 0.000000 0.000000 0.000000
					}
				}
			}
		}
	}
	JOINT lowerback
	{
		OFFSET 0.004439 0.124404 -0.038385
		CHANNELS 3 Zrotation Yrotation Xrotation
		JOINT upperback
		{
			OFFSET 0.004488 0.137956 0.026820
			CHANNELS 3 Zrotation Yrotation Xrotation
			JOINT chest
			{
				OFFSET -0.002265 0.056032 0.002855
				CHANNELS 3 Zrotation Yrotation Xrotation
				JOINT lowerneck
				{
					OFFSET -0.013390 0.211636 -0.033468
					CHANNELS 3 Zrotation Yrotation Xrotation
					JOINT upperneck
					{
						OFFSET 0.010113 0.088937 0.050410
						CHANNELS 3 Zrotation Yrotation Xrotation
						End Site
						{
							OFFSET 0.000000 0.000000 0.000000
						}
					}
				}
				JOINT lclavicle
				{
					OFFSET 0.071702 0.114000 -0.018898
					CHANNELS 3 Zrotation Yrotation Xrotation
					JOINT lshoulder
					{
						OFFSET 0.122921 0.045205 -0.019046
						CHANNELS 3 Zrotation Yrotation Xrotation
						JOINT lelbow
						{
							OFFSET 0.255332 -0.015649 -0.022946
							CHANNELS 3 Zrotation Yrotation Xrotation
							JOINT lwrist
							{
								OFFSET 0.265709 0.012698 -0.007375
								CHANNELS 3 Zrotation Yrotation Xrotation
								End Site
								{
									OFFSET 0.000000 0.000000 0.000000
								}
							}
						}
					}
				}
				JOINT rclavicle
				{
					OFFSET -0.082954 0.112472 -0.023707
					CHANNELS 3 Zrotation Yrotation Xrotation
					JOINT rshoulder
					{
						OFFSET -0.113228 0.046853 -0.008472
						CHANNELS 3 Zrotation Yrotation Xrotation
						JOINT relbow
						{
							OFFSET -0.260127 -0.014369 -0.031269
							CHANNELS 3 Zrotation Yrotation Xrotation
							JOINT rwrist
							{
								OFFSET -0.269108 0.006794 -0.006027
								CHANNELS 3 Zrotation Yrotation Xrotation
								End Site
								{
									OFFSET 0.000000 0.000000 0.000000
								}
							}
						}
					}
				}
			}
		}
	}
}
MOTION
Frames: 11
Frame Time: 0.033333
0.036468 0.256262 1.018312 107.311375 -1.167095 80.744695 -0.148441 -0.983828 5.264547 1.665466 -9.021843 4.179362 -1.485775 2.755337 -4.750377 0.000000 -0.000000 0.000000 -5.950005 -8.758923 2.643102 -3.195982 -9.186861 13.119727 1.677852 -11.048290 -5.132775 0.000000 -0.000000 0.000000 -1.606139 5.008428 5.109242 0.784188 -5.437736 13.966819 1.078667 0.713966 -3.215615 -7.058714 -7.874872 5.059347 4.938842 -10.703509 -11.611428 -10.485311 -35.201225 -1.232682 -29.287676 -42.045357 6.134588 15.230630 -56.325812 -12.083135 12.399806 -9.057717 -32.769133 12.706762 36.221926 2.722121 23.210452 35.621705 -0.278744 -23.341191 60.026055 -27.595393 -11.411672 10.751264 -47.043919 
0.029333 0.254874 1.018465 109.170184 -0.578027 81.031319 0.442387 -0.899196 3.859680 1.852958 -9.721760 4.399869 -2.586872 1.512795 -3.818172 0.000000 -0.000000 0.000000 -5.368842 -9.306836 1.672919 -3.176088 -9.936475 13.688253 1.575414 -11.633065 -5.060117 0.000000 -0.000000 0.000000 -1.707468 4.985184 6.916384 0.563198 -6.710326 12.536709 1.666529 0.574161 -3.319976 -9.583106 -6.797364 4.979373 4.997294 -10.871637 -10.488837 -5.487491 -44.007560 -3.926554 -24.756353 -49.638550 -1.611447 10.085374 -33.406122 -11.845711 5.112313 -12.274570 -28.450441 9.255862 40.059299 1.603068 18.573457 36.102218 -7.898494 -22.108059 45.107814 -28.727364 -4.157969 12.761098 -45.112194 
0.021608 0.254489 1.019962 110.713044 -0.119717 81.216023 0.799873 -0.563948 2.979142 2.198438 -10.622268 3.855358 -3.456551 0.850589 -2.775902 0.000000 -0.000000 0.000000 -5.108491 -9.956259 0.935401 -2.917204 -10.538938 13.885818 1.543000 -11.993663 -4.839130 0.000000 -0.000000 0.000000 -2.129942 5.212903 8.093036 0.484213 -8.590060 13.154815 2.335824 0.613498 -3.812242 -11.825237 -5.147037 5.146526 5.767895 -10.823148 -11.225131 1.844398 -52.341120 -8.568990 -17.817194 -54.293505 -9.721198 8.666462 -12.180943 -15.683796 0.748864 -13.502052 -24.466819 5.588303 44.460426 0.264113 13.319030 35.815246 -14.990963 -19.831741 32.405209 -28.382988 -0.073576 13.695071 -43.245409 
0.013136 0.253247 1.022178 111.687494 0.468506 81.472225 1.392481 -0.246446 2.026804 2.422217 -11.797074 3.318841 -4.461062 1.036376 -1.767995 0.000000 -0.000000 0.000000 -4.606232 -10.271616 -0.026382 -2.575216 -10.847569 14.096049 1.469599 -12.334619 -4.448209 0.000000 -0.000000 0.000000 -2.337985 4.794717 9.961524 0.115665 -10.148748 13.688566 2.843978 0.594950 -4.243196 -13.963908 -3.354692 5.128974 6.407728 -9.815431 -12.540611 11.958181 -57.540348 -15.178124 -13.492125 -56.420873 -13.934163 10.213325 -1.198731 -20.182515 2.850292 -11.065776 -23.028246 -0.409496 48.336900 -2.602332 9.839296 36.958999 -21.192307 -17.539105 20.806090 -28.513148 2.231226 13.142925 -42.864998 
0.009535 0.251742 1.023408 111.647776 0.693006 81.489763 1.750432 0.108866 1.698096 2.426613 -11.909789 3.270570 -4.601535 0.808498 -1.526939 0.000000 -0.000000 0.000000 -4.353027 -10.209573 -0.300860 -2.405655 -10.883762 14.086864 1.454707 -12.381119 -4.258184 0.000000 -0.000000 0.000000 -2.286167 4.544565 10.579564 -0.234633 -10.177387 14.525864 2.722984 0.537762 -4.467087 -14.646560 -3.125835 5.887992 6.380878 -9.143250 -13.539092 11.690112 -58.844533 -15.051776 -10.244136 -56.463117 -16.551705 9.649687 -3.279631 -20.877320 5.741448 -10.643786 -21.115141 -1.979139 49.965637 -3.115986 7.682182 37.451872 -24.292008 -17.379720 17.083320 -31.830239 1.509618 13.083870 -42.964944 
0.006934 0.249571 1.023685 111.047113 0.767985 81.232130 2.054245 0.738441 1.774115 2.404284 -11.763806 3.291444 -4.706913 0.536066 -1.517531 0.000000 -0.000000 0.000000 -4.251342 -10.080818 -0.399918 -2.252034 -10.785872 14.230086 1.405330 -12.070564 -4.173555 0.000000 -0.000000 0.000000 -2.596648 5.006882 10.496230 -0.467568 -10.066189 16.717228 2.180665 0.685341 -4.801730 -14.212481 -2.430534 7.886461 6.514967 -9.517588 -15.225285 10.821736 -59.809219 -14.195152 -7.086906 -55.645227 -17.802178 9.794124 -4.815102 -16.595665 3.179625 -11.561373 -16.008773 -1.083333 51.206411 -2.257462 5.326656 37.027179 -27.477407 -19.515866 16.033492 -35.723233 0.639590 13.045417 -44.215191 
0.005123 0.247760 1.022965 110.582306 0.754274 80.749900 2.131112 0.494360 2.008541 2.255396 -11.850897 3.773094 -4.540491 1.127187 -1.855691 0.000000 -0.000000 0.000000 -4.390456 -10.317761 -0.461207 -2.098449 -10.489460 14.933100 1.296937 -11.806800 -4.364700 0.000000 -0.000000 0.000000 -3.095798 5.728416 10.263799 -0.323194 -10.115502 18.540908 2.005788 1.080788 -4.384038 -15.105419 -2.395238 10.946364 7.598220 -10.440350 -17.374806 15.245044 -58.296129 -15.855269 -7.496988 -53.698834 -16.975744 9.774439 -7.398248 -16.861237 4.572913 -11.799604 -21.532996 -1.215764 50.296621 -1.721564 6.198360 37.031604 -27.376172 -22.129010 20.470513 -35.209227 -0.955379 11.956654 -43.713561 
0.005183 0.246439 1.021982 110.119654 0.683425 80.257582 2.185536 -0.111542 2.574269 1.885691 -11.898844 3.999218 -3.855043 2.197215 -2.113210 0.000000 -0.000000 0.000000 -4.776878 -10.536126 -0.448708 -1.762869 -10.061508 15.862614 1.140868 -11.577548 -4.582557 0.000000 -0.000000 0.000000 -3.134737 6.028625 9.988697 -0.324770 -9.457821 19.148204 1.962888 1.546776 -3.614260 -17.458288 -4.166708 15.393561 8.483822 -11.095613 -17.398888 17.307171 -54.450705 -14.655674 -12.693122 -50.508614 -13.764340 11.163709 -18.265111 -22.435414 10.698839 -7.289575 -32.124481 -2.920132 48.042751 -1.619330 12.139200 36.670248 -22.530470 -26.048518 29.445140 -35.699310 -2.175335 11.665310 -42.504335 
0.006960 0.245446 1.022558 109.545764 0.656578 80.135678 2.232736 -0.154812 2.918859 1.675082 -11.841147 4.356246 -3.476886 2.794546 -2.557048 0.000000 -0.000000 0.000000 -4.855458 -10.159842 -0.202990 -1.681878 -10.106978 16.131176 1.176975 -11.138286 -4.686122 0.000000 -0.000000 0.000000 -2.542501 5.545465 9.735576 -0.341207 -8.107262 18.213333 1.561276 1.865728 -2.468731 -17.819079 -4.608238 18.927705 7.661198 -12.156162 -15.284513 15.081833 -47.595515 -9.534755 -20.893532 -45.864596 -6.777025 17.812691 -37.983677 -22.227386 16.444055 -3.404992 -38.430343 -4.276219 43.956776 -1.317663 22.474147 38.528450 -14.259693 -32.087970 40.909958 -39.834402 -11.257040 8.410427 -48.606526 
0.011519 0.245401 1.023680 107.944523 0.420195 81.053623 2.116908 -0.024578 2.979816 1.394877 -10.812723 4.052286 -2.596106 3.732117 -3.130565 0.000000 -0.000000 0.000000 -4.538928 -9.500777 -0.478086 -2.105070 -9.932340 15.432070 1.171452 -10.161069 -4.269748 0.000000 -0.000000 0.000000 -1.777626 5.384174 8.980502 -0.033754 -5.487726 16.369965 1.969218 1.061492 -1.028224 -17.528102 -7.536047 22.603790 6.789261 -10.450452 -15.777671 8.782325 -36.575166 -2.316502 -31.028191 -35.346002 3.204618 45.965558 -65.976663 -43.106842 24.148242 1.585014 -44.488402 -4.925806 38.787300 -1.099136 38.307459 38.348425 1.227460 -47.286168 60.910764 -53.839771 -17.628200 5.752329 -56.468211 
0.017486 0.247619 1.022921 104.528196 -0.789270 83.726056 0.560299 1.142808 1.020516 1.908827 -9.534256 4.550796 -0.714777 5.319995 -4.566489 0.000000 -0.000000 0.000000 -5.034201 -7.101313 -3.304580 -1.939439 -8.773176 15.399016 2.552796 -11.051518 -4.583163 0.000000 -0.000000 0.000000 -3.640418 4.641742 0.287984 1.235811 -5.200228 26.235421 0.478494 1.283909 -3.094485 -15.555509 -7.840956 25.963787 9.518118 -7.860754 -22.693654 1.294959 -26.596572 2.410526 -30.468057 -19.595470 5.113362 119.173767 -73.170662 -117.318321 21.247414 -4.331266 -41.957326 1.735322 37.866889 3.378915 36.389314 40.812542 4.158497 -44.574147 80.503728 -55.374390 -24.167374 5.677577 -49.987793 
